<?xml version="1.0" encoding="UTF-8" standalone="no"?>
<svg width="34px" height="56px" viewBox="0 0 34 56" version="1.1" xmlns="http://www.w3.org/2000/svg" xmlns:xlink="http://www.w3.org/1999/xlink" xmlns:sketch="http://www.bohemiancoding.com/sketch/ns">
    <!-- Generator: Sketch 3.3.2 (12043) - http://www.bohemiancoding.com/sketch -->
    <title>ribbon</title>
    <desc>Created with Sketch.</desc>
    <defs>
        <path id="path-1" d="M2.4,31.8 C1.6,32.3 0.9,31.7 1,30.7 C5,9.9 7,0 7,0 L17,0 C17,0 19,9.9 23.9,30.7 C24.1,31.7 23.5,32.2 22.6,31.8 L12,26.5 C12,26.5 9,28 2.4,31.8 L2.4,31.8 Z"></path>
        <circle id="path-3" cx="17" cy="17" r="17"></circle>
        <circle id="path-5" cx="17" cy="17" r="17"></circle>
    </defs>
    <g id="VER02" stroke="none" stroke-width="1" fill="none" fill-rule="evenodd" sketch:type="MSPage">
        <g id="SC-PAGE-Desktop" sketch:type="MSArtboardGroup" transform="translate(-701.000000, -1123.000000)">
            <g id="ribbon" sketch:type="MSLayerGroup" transform="translate(701.000000, 1123.000000)">
                <g id="Group" transform="translate(5.000000, 24.000000)">
                    <g id="SVGID_1_-link" fill="#75A2D8" sketch:type="MSShapeGroup">
                        <path d="M2.4,31.8 C1.6,32.3 0.9,31.7 1,30.7 C5,9.9 7,0 7,0 L17,0 C17,0 19,9.9 23.9,30.7 C24.1,31.7 23.5,32.2 22.6,31.8 L12,26.5 C12,26.5 9,28 2.4,31.8 L2.4,31.8 Z" id="SVGID_1_"></path>
                    </g>
                    <g id="Clipped">
                        <mask id="mask-2" sketch:name="SVGID_1_" fill="white">
                            <use xlink:href="#path-1"></use>
                        </mask>
                        <g id="SVGID_1_"></g>
                        <path d="M29,2.8 L29,-3 L1,-3 L1,19 L29,2.8 Z" id="Shape" opacity="0.3" fill="#231F20" sketch:type="MSShapeGroup" mask="url(#mask-2)"></path>
                    </g>
                </g>
                <g id="Group">
                    <g id="SVGID_3_-link" fill="#75A2D8" sketch:type="MSShapeGroup">
                        <circle id="SVGID_3_" cx="17" cy="17" r="17"></circle>
                    </g>
                    <g id="Clipped">
                        <mask id="mask-4" sketch:name="SVGID_3_" fill="white">
                            <use xlink:href="#path-3"></use>
                        </mask>
                        <g id="SVGID_3_"></g>
                    </g>
                    <g id="Clipped">
                        <mask id="mask-6" sketch:name="SVGID_3_" fill="white">
                            <use xlink:href="#path-5"></use>
                        </mask>
                        <g id="SVGID_3_"></g>
                        <path d="M17,-1 L17,35 L26,32.6 L8,1.4 L17,-1 L17,-1 Z M-0.9,17 L35,17 L32.6,26 L1.5,8 L-0.9,17 L-0.9,17 Z M1.5,26 L32.6,8 L26,1.4 L8,32.6 L1.5,26 L1.5,26 Z" id="Shape" opacity="0.3" fill="#FFFFFF" sketch:type="MSShapeGroup" mask="url(#mask-6)"></path>
                    </g>
                </g>
                <g id="Group" transform="translate(6.000000, 6.000000)" sketch:type="MSShapeGroup">
                    <circle id="Oval" fill="#75A2D8" cx="11" cy="11" r="11"></circle>
                    <circle id="Oval" opacity="0.3" fill="#231F20" cx="11" cy="11" r="11"></circle>
                </g>
            </g>
        </g>
    </g>
</svg>