<?xml version="1.0" encoding="UTF-8" standalone="no"?>
<svg width="55px" height="55px" viewBox="0 0 55 55" version="1.1" xmlns="http://www.w3.org/2000/svg" xmlns:xlink="http://www.w3.org/1999/xlink" xmlns:sketch="http://www.bohemiancoding.com/sketch/ns">
    <!-- Generator: Sketch 3.3.2 (12043) - http://www.bohemiancoding.com/sketch -->
    <title>trophy</title>
    <desc>Created with Sketch.</desc>
    <defs>
        <path d="M36.8,37.8 C47.9,36.7 55,22 55,12.2 C55,10.5 53.7,9.4 52,9.4 L44.5,9.4 C44.9,6.9 45.3,4.4 45.8,1.9 C46.1,0.2 46.4,0.4 43,0.4 L12.9,0.4 C9.6,0.4 9.8,0.2 10.1,1.9 C10.6,4.4 11,6.9 11.5,9.4 L3.9,9.4 C2.2,9.4 0.9,10.5 0.9,12.2 C0.9,21.9 8,36.6 19,37.8 C21.4,40.8 24,42.2 24.9,42.4 L24.9,45.4 L17.4,45.4 L12.9,54.4 L42.9,54.4 L38.4,45.4 L31,45.4 L31,42.4 C31.9,42.4 34.4,40.9 36.8,37.8 L36.8,37.8 Z M46,12.4 C47.7,12.4 49.7,11.7 49,15.4 C46.7,28.3 42.9,33.4 38.5,35.3 C39.8,33.2 40.8,30.5 41.5,27.4 C42.5,22.4 43.2,17.4 44,12.4 L46,12.4 L46,12.4 Z M7,15.4 C6.3,11.7 8.3,12.4 10,12.4 L12.1,12.4 C12.9,17.4 13.7,22.5 14.5,27.4 C15,30.5 16.1,33.1 17.3,35.2 C13,33.3 9.3,28.1 7,15.4 L7,15.4 Z" id="path-1"></path>
        <path d="M36.8,37.8 C47.9,36.7 55,22 55,12.2 C55,10.5 53.7,9.4 52,9.4 L44.5,9.4 C44.9,6.9 45.3,4.4 45.8,1.9 C46.1,0.2 46.4,0.4 43,0.4 L12.9,0.4 C9.6,0.4 9.8,0.2 10.1,1.9 C10.6,4.4 11,6.9 11.5,9.4 L3.9,9.4 C2.2,9.4 0.9,10.5 0.9,12.2 C0.9,21.9 8,36.6 19,37.8 C21.4,40.8 24,42.2 24.9,42.4 L24.9,45.4 L17.4,45.4 L12.9,54.4 L42.9,54.4 L38.4,45.4 L31,45.4 L31,42.4 C31.9,42.4 34.4,40.9 36.8,37.8 L36.8,37.8 Z M46,12.4 C47.7,12.4 49.7,11.7 49,15.4 C46.7,28.3 42.9,33.4 38.5,35.3 C39.8,33.2 40.8,30.5 41.5,27.4 C42.5,22.4 43.2,17.4 44,12.4 L46,12.4 L46,12.4 Z M7,15.4 C6.3,11.7 8.3,12.4 10,12.4 L12.1,12.4 C12.9,17.4 13.7,22.5 14.5,27.4 C15,30.5 16.1,33.1 17.3,35.2 C13,33.3 9.3,28.1 7,15.4 L7,15.4 Z" id="path-3"></path>
    </defs>
    <g id="VER02" stroke="none" stroke-width="1" fill="none" fill-rule="evenodd" sketch:type="MSPage">
        <g id="SC-PAGE-Desktop" sketch:type="MSArtboardGroup" transform="translate(-768.000000, -1123.000000)">
            <g id="trophy" sketch:type="MSLayerGroup" transform="translate(768.000000, 1123.000000)">
                <path d="M36.8,37.8 C47.9,36.7 55,22 55,12.2 C55,10.5 53.7,9.4 52,9.4 L44.5,9.4 C44.9,6.9 45.3,4.4 45.8,1.9 C46.1,0.2 46.4,0.4 43,0.4 L12.9,0.4 C9.6,0.4 9.8,0.2 10.1,1.9 C10.6,4.4 11,6.9 11.5,9.4 L3.9,9.4 C2.2,9.4 0.9,10.5 0.9,12.2 C0.9,21.9 8,36.6 19,37.8 C21.4,40.8 24,42.2 24.9,42.4 L24.9,45.4 L17.4,45.4 L12.9,54.4 L42.9,54.4 L38.4,45.4 L31,45.4 L31,42.4 C31.9,42.4 34.4,40.9 36.8,37.8 L36.8,37.8 Z M46,12.4 C47.7,12.4 49.7,11.7 49,15.4 C46.7,28.3 42.9,33.4 38.5,35.3 C39.8,33.2 40.8,30.5 41.5,27.4 C42.5,22.4 43.2,17.4 44,12.4 L46,12.4 L46,12.4 Z M7,15.4 C6.3,11.7 8.3,12.4 10,12.4 L12.1,12.4 C12.9,17.4 13.7,22.5 14.5,27.4 C15,30.5 16.1,33.1 17.3,35.2 C13,33.3 9.3,28.1 7,15.4 L7,15.4 Z" id="Shape" fill="#EDCC0C" sketch:type="MSShapeGroup"></path>
                <g id="Group">
                    <g id="Clipped">
                        <mask id="mask-2" sketch:name="SVGID_1_" fill="white">
                            <use xlink:href="#path-1"></use>
                        </mask>
                        <g id="SVGID_1_"></g>
                        <rect id="Rectangle-path" opacity="0.15" fill="#FFFFFF" sketch:type="MSShapeGroup" mask="url(#mask-2)" x="28.2" y="-0.4" width="27.6" height="56"></rect>
                    </g>
                    <g id="Clipped">
                        <mask id="mask-4" sketch:name="SVGID_1_" fill="white">
                            <use xlink:href="#path-3"></use>
                        </mask>
                        <g id="SVGID_1_"></g>
                        <rect id="Rectangle-path" opacity="0.08" fill="#050000" sketch:type="MSShapeGroup" mask="url(#mask-4)" x="44.6" y="9.2" width="27.6" height="56"></rect>
                    </g>
                </g>
            </g>
        </g>
    </g>
</svg>