<?xml version="1.0" encoding="UTF-8" standalone="no"?>
<svg width="27px" height="25px" viewBox="0 0 27 25" version="1.1" xmlns="http://www.w3.org/2000/svg" xmlns:xlink="http://www.w3.org/1999/xlink" xmlns:sketch="http://www.bohemiancoding.com/sketch/ns">
    <!-- Generator: Sketch 3.3.2 (12043) - http://www.bohemiancoding.com/sketch -->
    <title>favorite-outline</title>
    <desc>Created with Sketch.</desc>
    <defs></defs>
    <g id="VER02" stroke="none" stroke-width="1" fill="none" fill-rule="evenodd" sketch:type="MSPage">
        <g id="SC-PAGE-Desktop" sketch:type="MSArtboardGroup" transform="translate(-718.000000, -779.000000)" fill="#19190F">
            <g id="SHARE" sketch:type="MSLayerGroup" transform="translate(681.000000, 759.000000)">
                <g id="LIKE" transform="translate(37.000000, 20.000000)" sketch:type="MSShapeGroup">
                    <g id="favorite-outline">
                        <path d="M19.575,0 C17.28,0 14.985,1.06666667 13.5,2.8 C12.015,1.06666667 9.72,0 7.425,0 C3.24,0 0,3.2 0,7.33333333 C0,12.4 4.59,16.5333333 11.61,22.6666667 L13.5,24.4 L15.39,22.6666667 C22.275,16.4 27,12.2666667 27,7.33333333 C27,3.2 23.76,0 19.575,0 L19.575,0 Z M13.635,20.8 L13.5,20.8 L13.365,20.6666667 C6.885,14.9333333 2.7,11.2 2.7,7.33333333 C2.7,4.66666667 4.725,2.66666667 7.425,2.66666667 C9.45,2.66666667 11.475,4 12.285,5.86666667 L14.85,5.86666667 C15.525,4 17.55,2.66666667 19.575,2.66666667 C22.275,2.66666667 24.3,4.66666667 24.3,7.33333333 C24.3,11.2 20.115,14.9333333 13.635,20.8 L13.635,20.8 Z" id="Shape"></path>
                    </g>
                </g>
            </g>
        </g>
    </g>
</svg>