<?xml version="1.0" encoding="UTF-8" standalone="no"?>
<svg width="15px" height="13px" viewBox="0 0 15 13" version="1.1" xmlns="http://www.w3.org/2000/svg" xmlns:xlink="http://www.w3.org/1999/xlink" xmlns:sketch="http://www.bohemiancoding.com/sketch/ns">
    <!-- Generator: Sketch 3.3.2 (12043) - http://www.bohemiancoding.com/sketch -->
    <title>favorite-outline</title>
    <desc>Created with Sketch.</desc>
    <defs></defs>
    <g id="VER02" stroke="none" stroke-width="1" fill="none" fill-rule="evenodd" sketch:type="MSPage">
        <g id="MAIN-Desktop-3-ALTERNATIVE" sketch:type="MSArtboardGroup" transform="translate(-219.000000, -929.000000)" fill="#3E3E3E">
            <g id="SUPERCENTENARIANS" sketch:type="MSLayerGroup" transform="translate(21.000000, 739.000000)">
                <g id="ЛАЙКИ" transform="translate(195.000000, 190.000000)" sketch:type="MSShapeGroup">
                    <g id="Сердца" transform="translate(3.000000, 0.000000)">
                        <g id="favorite-outline" transform="translate(0.500000, 0.000000)">
                            <path d="M10.15,0 C8.96,0 7.77,0.533333333 7,1.4 C6.23,0.533333333 5.04,0 3.85,0 C1.68,0 0,1.6 0,3.66666667 C0,6.2 2.38,8.26666667 6.02,11.3333333 L7,12.2 L7.98,11.3333333 C11.55,8.2 14,6.13333333 14,3.66666667 C14,1.6 12.32,0 10.15,0 L10.15,0 Z M7.07,10.4 L7,10.4 L6.93,10.3333333 C3.57,7.46666667 1.4,5.6 1.4,3.66666667 C1.4,2.33333333 2.45,1.33333333 3.85,1.33333333 C4.9,1.33333333 5.95,2 6.37,2.93333333 L7.7,2.93333333 C8.05,2 9.1,1.33333333 10.15,1.33333333 C11.55,1.33333333 12.6,2.33333333 12.6,3.66666667 C12.6,5.6 10.43,7.46666667 7.07,10.4 L7.07,10.4 Z" id="Shape"></path>
                        </g>
                    </g>
                </g>
            </g>
        </g>
    </g>
</svg>