<?xml version="1.0" encoding="UTF-8" standalone="no"?>
<svg width="24px" height="24px" viewBox="0 0 24 24" version="1.1" xmlns="http://www.w3.org/2000/svg" xmlns:xlink="http://www.w3.org/1999/xlink" xmlns:sketch="http://www.bohemiancoding.com/sketch/ns">
    <!-- Generator: Sketch 3.3.2 (12043) - http://www.bohemiancoding.com/sketch -->
    <title>Oval 1</title>
    <desc>Created with Sketch.</desc>
    <defs></defs>
    <g id="VER02" stroke="none" stroke-width="1" fill="none" fill-rule="evenodd" sketch:type="MSPage">
        <g id="SC-LIST-Desktop" sketch:type="MSArtboardGroup" transform="translate(-958.000000, -1380.000000)" fill="#D8D8D8">
            <g id="FOOTER" sketch:type="MSLayerGroup" transform="translate(0.000000, 1360.000000)">
                <g id="SOCIAL-OUTLINE-2" transform="translate(837.000000, 20.000000)" sketch:type="MSShapeGroup">
                    <path d="M133,24 C139.627417,24 145,18.6274173 145,12 C145,5.37258267 139.627417,0 133,0 C126.372583,0 121,5.37258267 121,12 C121,18.6274173 126.372583,24 133,24 Z M133,22.56 C138.832127,22.56 143.56,17.8321272 143.56,12 C143.56,6.16787275 138.832127,1.44 133,1.44 C127.167873,1.44 122.44,6.16787275 122.44,12 C122.44,17.8321272 127.167873,22.56 133,22.56 Z M127.72,9.65666298 L127.72,16.635928 L129.980841,16.635928 L129.980841,9.65666298 L127.72,9.65666298 Z M128.999054,6.24 C128.225635,6.24 127.72,6.76121333 127.72,7.44552584 C127.72,8.11566388 128.21069,8.65188548 128.969707,8.65188548 L128.984155,8.65188548 C129.772474,8.65188548 130.263435,8.11566388 130.263435,7.44552584 C130.248761,6.76121333 129.772474,6.24 128.999054,6.24 Z M135.676922,9.65666298 C134.476564,9.65666298 133.939144,10.3340735 133.639077,10.8092893 L133.639077,9.82073493 L131.377965,9.82073493 C131.407764,10.4756331 131.377965,16.8 131.377965,16.8 L133.639077,16.8 L133.639077,12.9022026 C133.639077,12.6936153 133.653751,12.4855377 133.71353,12.336196 C133.876927,11.9194848 134.248963,11.4880432 134.873568,11.4880432 C135.692002,11.4880432 136.019159,12.1280257 136.019159,13.065904 L136.019159,16.7998147 L138.27991,16.7998147 L138.28,12.7981174 C138.28,10.6543891 137.16466,9.65666298 135.676922,9.65666298 Z" id="Oval-1"></path>
                </g>
            </g>
        </g>
    </g>
</svg>