<?xml version="1.0" encoding="UTF-8" standalone="no"?>
<svg width="24px" height="24px" viewBox="0 0 24 24" version="1.1" xmlns="http://www.w3.org/2000/svg" xmlns:xlink="http://www.w3.org/1999/xlink" xmlns:sketch="http://www.bohemiancoding.com/sketch/ns">
    <!-- Generator: Sketch 3.3.2 (12043) - http://www.bohemiancoding.com/sketch -->
    <title>Oval 1</title>
    <desc>Created with Sketch.</desc>
    <defs></defs>
    <g id="VER02" stroke="none" stroke-width="1" fill="none" fill-rule="evenodd" sketch:type="MSPage">
        <g id="SC-LIST-Desktop" sketch:type="MSArtboardGroup" transform="translate(-877.000000, -1380.000000)" fill="#D8D8D8">
            <g id="FOOTER" sketch:type="MSLayerGroup" transform="translate(0.000000, 1360.000000)">
                <g id="SOCIAL-OUTLINE-2" transform="translate(837.000000, 20.000000)" sketch:type="MSShapeGroup">
                    <path d="M52,24 C58.6274173,24 64,18.6274173 64,12 C64,5.37258267 58.6274173,0 52,0 C45.3725827,0 40,5.37258267 40,12 C40,18.6274173 45.3725827,24 52,24 Z M52,22.56 C57.8321272,22.56 62.56,17.8321272 62.56,12 C62.56,6.16787275 57.8321272,1.44 52,1.44 C46.1678728,1.44 41.44,6.16787275 41.44,12 C41.44,17.8321272 46.1678728,22.56 52,22.56 Z M52.8709694,17.28 L52.8709694,11.9993818 L54.4329976,11.9993818 L54.64,10.1796515 L52.8709694,10.1796515 L52.8736233,9.26885892 C52.8736233,8.79424522 52.921946,8.53993636 53.6524258,8.53993636 L54.6289422,8.53993636 L54.6289422,6.72 L53.0666929,6.72 C51.1901803,6.72 50.5296965,7.60276498 50.5296965,9.08729805 L50.5296965,10.1798575 L49.36,10.1798575 L49.36,11.9995878 L50.5296965,11.9995878 L50.5296965,17.28 L52.8709694,17.28 Z" id="Oval-1"></path>
                </g>
            </g>
        </g>
    </g>
</svg>