<?xml version="1.0" encoding="UTF-8" standalone="no"?>
<svg width="24px" height="24px" viewBox="0 0 24 24" version="1.1" xmlns="http://www.w3.org/2000/svg" xmlns:xlink="http://www.w3.org/1999/xlink" xmlns:sketch="http://www.bohemiancoding.com/sketch/ns">
    <!-- Generator: Sketch 3.3.2 (12043) - http://www.bohemiancoding.com/sketch -->
    <title>Oval 1</title>
    <desc>Created with Sketch.</desc>
    <defs></defs>
    <g id="VER02" stroke="none" stroke-width="1" fill="none" fill-rule="evenodd" sketch:type="MSPage">
        <g id="SC-LIST-Desktop" sketch:type="MSArtboardGroup" transform="translate(-917.000000, -1380.000000)" fill="#D8D8D8">
            <g id="FOOTER" sketch:type="MSLayerGroup" transform="translate(0.000000, 1360.000000)">
                <g id="SOCIAL-OUTLINE-2" transform="translate(837.000000, 20.000000)" sketch:type="MSShapeGroup">
                    <path d="M92,0 C85.3725827,0 80,5.37258267 80,12 C80,18.6274173 85.3725827,24 92,24 C98.6274173,24 104,18.6274173 104,12 C104,5.37258267 98.6274173,0 92,0 Z M92,1.44 C86.1678728,1.44 81.44,6.16787275 81.44,12 C81.44,17.8321272 86.1678728,22.56 92,22.56 C97.8321272,22.56 102.56,17.8321272 102.56,12 C102.56,6.16787275 97.8321272,1.44 92,1.44 Z M98.3575941,10.6126806 L98.3575941,13.1463299 L97.2817649,13.1463299 L97.2817649,10.6126806 L94.7715102,10.6126806 L94.7715102,9.55816333 L97.2817649,9.55816333 L97.2817649,7.04677479 L98.3575941,7.04677479 L98.3575941,9.55816333 L100.274028,9.55816333 C100.415573,9.90020644 100.538012,10.2521721 100.64,10.6126806 L98.3575941,10.6126806 Z M85.6282652,17.8923813 C87.027034,17.0361363 88.9109249,16.9230473 89.9296814,16.8584251 C89.614352,16.4545359 89.2505104,16.0264135 89.2505104,15.3236464 C89.2505104,14.9439906 89.3637056,14.7178127 89.4769007,14.4512458 C89.2262543,14.4754792 88.9836932,14.4997125 88.7573029,14.4997125 C86.3721191,14.4997125 85.0218625,12.7226003 85.0218625,10.9697215 C85.0218625,9.93576529 85.4988993,8.78710459 86.4610582,7.95590075 C87.7466318,6.90013455 89.2747665,6.72 90.4875718,6.72 L95.1204882,6.72 L93.6812925,7.52858605 L92.2906091,7.52858605 C92.8080727,7.95590075 93.8834267,8.85495797 93.8834267,10.5658323 C93.8834267,12.2298556 92.9374386,13.0134005 91.9995358,13.7565565 C91.7003772,14.0473567 91.368877,14.3623902 91.368877,14.855135 C91.368877,15.3478797 91.7003772,15.6225243 91.9510236,15.8244689 L92.7595605,16.4545359 C93.7540608,17.2784698 94.6515368,18.0458591 94.6515368,19.5967934 C94.6515368,20.6195771 94.1737864,21.6461339 93.2429253,22.4339454 C92.7420759,22.5155239 92.2282778,22.5585894 91.7046757,22.56 C92.6498933,22.145763 93.1395728,21.3878496 93.1395728,20.4772717 C93.1395728,19.3302266 92.4038042,18.7243929 90.6897061,17.5046477 C90.5118279,17.4884921 90.3986328,17.4884921 90.1722424,17.4884921 C89.9701082,17.4884921 88.7573029,17.528881 87.8113148,17.8439146 C87.3181073,18.0216258 85.8789116,18.5628372 85.8789116,20.1622382 C85.8789116,20.336054 85.8974325,20.5045693 85.9335683,20.6668682 C83.5629103,18.9099275 84.5898756,19.1578818 84.32,19.1578814 C84.5898755,18.7044724 85.0083381,18.2587014 85.6282652,17.8923813 Z M89.0726323,7.46154045 C88.4904857,7.46154045 87.859827,7.75395619 87.4959854,8.20388868 C87.115973,8.67563119 87.0027779,9.2814649 87.0027779,9.86306525 C87.0027779,11.3736106 87.8759977,13.8696455 89.8164862,13.8696455 C90.3743767,13.8696455 90.9807793,13.5950009 91.3446209,13.2395784 C91.8620845,12.7226003 91.9025114,12.0036777 91.9025114,11.5997885 C91.9025114,9.97615421 90.9403525,7.46154045 89.0726323,7.46154045 Z" id="Oval-1"></path>
                </g>
            </g>
        </g>
    </g>
</svg>