<?xml version="1.0" encoding="UTF-8" standalone="no"?>
<svg width="24px" height="24px" viewBox="0 0 24 24" version="1.1" xmlns="http://www.w3.org/2000/svg" xmlns:xlink="http://www.w3.org/1999/xlink" xmlns:sketch="http://www.bohemiancoding.com/sketch/ns">
    <!-- Generator: Sketch 3.3.2 (12043) - http://www.bohemiancoding.com/sketch -->
    <title>Oval 1</title>
    <desc>Created with Sketch.</desc>
    <defs></defs>
    <g id="VER02" stroke="none" stroke-width="1" fill="none" fill-rule="evenodd" sketch:type="MSPage">
        <g id="SC-LIST-Desktop" sketch:type="MSArtboardGroup" transform="translate(-837.000000, -1380.000000)" fill="#D8D8D8">
            <g id="FOOTER" sketch:type="MSLayerGroup" transform="translate(0.000000, 1360.000000)">
                <g id="SOCIAL-OUTLINE-2" transform="translate(837.000000, 20.000000)" sketch:type="MSShapeGroup">
                    <path d="M12,24 C18.6274173,24 24,18.6274173 24,12 C24,5.37258267 18.6274173,0 12,0 C5.37258267,0 0,5.37258267 0,12 C0,18.6274173 5.37258267,24 12,24 Z M12,22.56 C17.8321272,22.56 22.56,17.8321272 22.56,12 C22.56,6.16787275 17.8321272,1.44 12,1.44 C6.16787275,1.44 1.44,6.16787275 1.44,12 C1.44,17.8321272 6.16787275,22.56 12,22.56 Z M11.8474826,9.86606279 L11.8703731,10.2605285 L11.488864,10.2122266 C10.1001708,10.0270692 8.88697181,9.39914417 7.85689718,8.34455218 L7.35330513,7.82128131 L7.22359205,8.2076967 C6.94890547,9.06908104 7.12439966,9.97876729 7.69666334,10.5905917 C8.00187064,10.9287051 7.933199,10.9770071 7.40671642,10.775749 C7.22359205,10.7113465 7.06335821,10.6630445 7.04809783,10.6871955 C6.99468658,10.7435478 7.17781095,11.4761269 7.32278441,11.7659385 C7.52116916,12.1684546 7.92556881,12.5629202 8.36811938,12.7963796 L8.74199831,12.9815369 L8.29944775,12.9895872 C7.87215752,12.9895872 7.85689718,12.9976376 7.90267828,13.1666943 C8.05528193,13.6899652 8.65806634,14.2454373 9.32952238,14.4869469 L9.80259367,14.6560037 L9.39056382,14.9136139 C8.78014923,15.2839287 8.06291208,15.493237 7.34567494,15.5093377 C7.00231673,15.517388 6.72,15.5495893 6.72,15.5737402 C6.72,15.6542434 7.65088224,16.1050614 8.1926252,16.2821685 C9.81785405,16.8054393 11.7482902,16.5800303 13.1980249,15.6864447 C14.2280995,15.0504694 15.2581741,13.786569 15.7388756,12.5629202 C15.9983018,11.9108443 16.257728,10.7193968 16.257728,10.147824 C16.257728,9.77750926 16.2806186,9.72920735 16.7079087,9.28643971 C16.9597048,9.02882942 17.1962405,8.7470682 17.2420215,8.66656497 C17.3183233,8.51360889 17.3106932,8.51360889 16.9215539,8.65046434 C16.2729884,8.89197398 16.1814262,8.85977271 16.5018938,8.49750826 C16.7384295,8.23989797 17.0207462,7.77297939 17.0207462,7.63612391 C17.0207462,7.61197298 16.9062935,7.65222459 16.7765804,7.72467744 C16.6392371,7.80518067 16.3340298,7.92593547 16.1051243,7.99838836 L15.6930945,8.13524381 L15.3192156,7.86958322 C15.1132006,7.72467744 14.8232537,7.56367106 14.6706501,7.51536911 C14.2815107,7.40266464 13.6863565,7.41876528 13.3353681,7.54757039 C12.3815953,7.90983484 11.7788109,8.84367207 11.8474826,9.86606279 C11.8474826,9.86606279 11.7788109,8.84367207 11.8474826,9.86606279 Z" id="Oval-1"></path>
                </g>
            </g>
        </g>
    </g>
</svg>