<?xml version="1.0" encoding="UTF-8" standalone="no"?>
<svg width="19px" height="19px" viewBox="0 0 19 19" version="1.1" xmlns="http://www.w3.org/2000/svg" xmlns:xlink="http://www.w3.org/1999/xlink" xmlns:sketch="http://www.bohemiancoding.com/sketch/ns">
    <!-- Generator: Sketch 3.3.2 (12043) - http://www.bohemiancoding.com/sketch -->
    <title>Shape 2</title>
    <desc>Created with Sketch.</desc>
    <defs></defs>
    <g id="VER02" stroke="none" stroke-width="1" fill="none" fill-rule="evenodd" sketch:type="MSPage">
        <g id="MAIN-Desktop-3-ALTERNATIVE" sketch:type="MSArtboardGroup" transform="translate(-42.000000, -671.000000)" fill="#000000">
            <g id="CONTROLS" sketch:type="MSLayerGroup" transform="translate(22.000000, 639.000000)">
                <g id="ICONS" transform="translate(20.000000, 32.000000)" sketch:type="MSShapeGroup">
                    <path d="M0,5 L5,5 L5,0 L0,0 L0,5 L0,5 Z M7,19 L12,19 L12,14 L7,14 L7,19 L7,19 Z M0,19 L5,19 L5,14 L0,14 L0,19 L0,19 Z M0,12 L5,12 L5,7 L0,7 L0,12 L0,12 Z M7,12 L12,12 L12,7 L7,7 L7,12 L7,12 Z M14,0 L14,5 L19,5 L19,0 L14,0 L14,0 Z M7,5 L12,5 L12,0 L7,0 L7,5 L7,5 Z M14,12 L19,12 L19,7 L14,7 L14,12 L14,12 Z M14,19 L19,19 L19,14 L14,14 L14,19 L14,19 Z" id="Shape-2"></path>
                </g>
            </g>
        </g>
    </g>
</svg>