<?xml version="1.0" encoding="UTF-8" standalone="no"?>
<svg width="47px" height="26px" viewBox="0 0 47 26" version="1.1" xmlns="http://www.w3.org/2000/svg" xmlns:xlink="http://www.w3.org/1999/xlink" xmlns:sketch="http://www.bohemiancoding.com/sketch/ns">
    <!-- Generator: Sketch 3.3.2 (12043) - http://www.bohemiancoding.com/sketch -->
    <title>Rectangle 19 + icon</title>
    <desc>Created with Sketch.</desc>
    <defs></defs>
    <g id="VER02" stroke="none" stroke-width="1" fill="none" fill-rule="evenodd" sketch:type="MSPage">
        <g id="SC-PAGE-Desktop" sketch:type="MSArtboardGroup" transform="translate(-890.000000, -779.000000)">
            <g id="SHARE" sketch:type="MSLayerGroup" transform="translate(681.000000, 759.000000)">
                <g id="Group" transform="translate(103.000000, 20.000000)" sketch:type="MSShapeGroup">
                    <g id="Google-Plus-Button" transform="translate(106.500000, 0.000000)">
                        <g id="Rectangle-19-+-icon">
                            <rect id="Rectangle-19" fill="#BD4C3A" x="0" y="0" width="46" height="26" rx="3"></rect>
                            <path d="M15,17.7192277 C15,17.1999944 15.1454234,16.7192299 15.4362745,16.27692 C15.7271256,15.8346101 16.1143767,15.4660241 16.5980392,15.1711508 C17.4542526,14.6455071 18.7745009,14.3249975 20.5588235,14.2096123 C20.3496722,13.9403802 20.194445,13.7032031 20.0931373,13.4980739 C19.9918296,13.2929446 19.9411765,13.0589726 19.9411765,12.7961508 C19.9411765,12.5653804 20.0098032,12.2929472 20.1470588,11.9788431 C19.8464037,12.0044843 19.6241837,12.0173046 19.4803922,12.0173046 C18.5130671,12.0173046 17.6977157,11.7080129 17.0343137,11.08942 C16.3709117,10.4708272 16.0392157,9.68718118 16.0392157,8.73845849 C16.0392157,8.21281483 16.1568616,7.70320454 16.3921569,7.20961233 C16.6274522,6.71602012 16.9509783,6.29615253 17.3627451,5.94999695 C17.8660156,5.52691791 18.4624149,5.21281849 19.1519608,5.00768926 C19.8415067,4.80256003 20.5522839,4.69999695 21.2843137,4.69999695 L25.3823529,4.69999695 L24.0294118,5.54615079 L22.745098,5.54615079 C23.2287606,5.94999897 23.59477,6.37627676 23.8431373,6.82499695 C24.0915045,7.27371714 24.2156863,7.78653253 24.2156863,8.36345849 C24.2156863,8.82499926 24.1356217,9.24005921 23.9754902,9.60865079 C23.8153587,9.97724238 23.6225501,10.2753163 23.3970588,10.5028816 C23.1715675,10.7304468 22.9444456,10.9387781 22.7156863,11.1278816 C22.486927,11.3169851 22.2924845,11.5140985 22.1323529,11.7192277 C21.9722214,11.9243569 21.8921569,12.1358933 21.8921569,12.3538431 C21.8921569,12.5846135 21.996731,12.8105728 22.2058824,13.0317277 C22.4150337,13.2528827 22.6682992,13.4708292 22.9656863,13.6855739 C23.2630734,13.9003185 23.5588221,14.1358931 23.8529412,14.3923046 C24.1470603,14.6487162 24.3986918,14.9820462 24.6078431,15.3923046 C24.8169945,15.8025631 24.9215686,16.2576868 24.9215686,16.7576893 C24.9215686,17.3346152 24.7647075,17.8890969 24.4509804,18.4211508 C23.9803898,19.203206 23.2908542,19.7785207 22.3823529,20.1471123 C21.4738517,20.5157039 20.5000052,20.6999969 19.4607843,20.6999969 C18.5980349,20.6999969 17.7924874,20.5669855 17.0441176,20.3009585 C16.2957479,20.0349315 15.735296,19.5942308 15.3627451,18.9788431 C15.1209138,18.5942258 15,18.1743582 15,17.7192277 Z M16.8235294,17.27692 C16.8235294,17.7256402 16.9379074,18.1214696 17.1666667,18.46442 C17.395426,18.8073705 17.6944426,19.0733934 18.0637255,19.2624969 C18.4330084,19.4516005 18.8218934,19.5926247 19.2303922,19.6855739 C19.6388909,19.7785231 20.0555534,19.8249969 20.4803922,19.8249969 C20.859479,19.8249969 21.2238545,19.7833307 21.5735294,19.6999969 C21.9232044,19.6166632 22.2467305,19.4916644 22.5441176,19.3249969 C22.8415048,19.1583294 23.0800645,18.9243574 23.2598039,18.6230739 C23.4395434,18.3217903 23.5294118,17.9724348 23.5294118,17.5749969 C23.5294118,17.4147397 23.5065362,17.25769 23.4607843,17.1038431 C23.4150325,16.9499962 23.3676473,16.8153821 23.3186275,16.6999969 C23.2696076,16.5846118 23.1813732,16.4516003 23.0539216,16.3009585 C22.92647,16.1503167 22.8300657,16.0381383 22.7647059,15.96442 C22.6993461,15.8907017 22.5735303,15.7801259 22.3872549,15.6326893 C22.2009795,15.4852526 22.0816996,15.3923048 22.0294118,15.3538431 C21.9771239,15.3153814 21.8415044,15.2192285 21.622549,15.0653816 C21.4035937,14.9115346 21.2843138,14.8282021 21.2647059,14.8153816 C21.1601302,14.802561 21.003269,14.7961508 20.7941176,14.7961508 C20.4477107,14.7961508 20.1045769,14.8185865 19.7647059,14.8634585 C19.4248349,14.9083305 19.0735312,14.9884579 18.7107843,15.1038431 C18.3480374,15.2192283 18.0310471,15.3666627 17.7598039,15.5461508 C17.4885607,15.7256389 17.2647068,15.9644185 17.0882353,16.2624969 C16.9117638,16.5605754 16.8235294,16.898713 16.8235294,17.27692 Z M17.8627451,7.71922772 C17.8627451,8.01410099 17.8954245,8.32659786 17.9607843,8.65672772 C18.0261441,8.98685757 18.1290843,9.31698248 18.2696078,9.64711233 C18.4101314,9.97724219 18.5800644,10.2737136 18.7794118,10.5365354 C18.9787592,10.7993572 19.2238548,11.0140987 19.5147059,11.1807662 C19.805557,11.3474337 20.1209133,11.4307662 20.4607843,11.4307662 C20.7091516,11.4307662 20.964051,11.3778821 21.2254902,11.2721123 C21.4869294,11.1663426 21.7026135,11.0269209 21.872549,10.8538431 C22.218956,10.4884567 22.3921569,9.97884637 22.3921569,9.32499695 C22.3921569,8.95320022 22.3366019,8.5525632 22.2254902,8.12307387 C22.1143785,7.69358454 21.9558834,7.27852459 21.75,6.87788156 C21.5441166,6.47723853 21.2679756,6.14551108 20.9215686,5.88268926 C20.5751617,5.61986743 20.1928125,5.48845849 19.7745098,5.48845849 C19.4999986,5.48845849 19.2303935,5.55095786 18.9656863,5.67595849 C18.7009791,5.80095911 18.4869289,5.96922666 18.3235294,6.18076618 C18.0163383,6.5589732 17.8627451,7.07178858 17.8627451,7.71922772 Z M25.3137255,12.4403816 L25.3137255,11.40192 L27.3921569,11.40192 L27.3921569,9.31538156 L28.4215686,9.31538156 L28.4215686,11.40192 L30.5098039,11.40192 L30.5098039,12.4403816 L28.4215686,12.4403816 L28.4215686,14.5461508 L27.3921569,14.5461508 L27.3921569,12.4403816 L25.3137255,12.4403816 Z" id="icon" fill="#FFFFFF"></path>
                        </g>
                    </g>
                </g>
            </g>
        </g>
    </g>
</svg>