<?xml version="1.0" encoding="UTF-8" standalone="no"?>
<svg width="47px" height="26px" viewBox="0 0 47 26" version="1.1" xmlns="http://www.w3.org/2000/svg" xmlns:xlink="http://www.w3.org/1999/xlink" xmlns:sketch="http://www.bohemiancoding.com/sketch/ns">
    <!-- Generator: Sketch 3.3.2 (12043) - http://www.bohemiancoding.com/sketch -->
    <title>Rectangle 23 + icon</title>
    <desc>Created with Sketch.</desc>
    <defs></defs>
    <g id="VER02" stroke="none" stroke-width="1" fill="none" fill-rule="evenodd" sketch:type="MSPage">
        <g id="SC-PAGE-Desktop" sketch:type="MSArtboardGroup" transform="translate(-784.000000, -825.000000)">
            <g id="SHARE" sketch:type="MSLayerGroup" transform="translate(681.000000, 759.000000)">
                <g id="Group" transform="translate(103.000000, 20.000000)" sketch:type="MSShapeGroup">
                    <g id="Linked-In-Button" transform="translate(0.500000, 46.000000)">
                        <g id="Rectangle-23-+-icon">
                            <rect id="Rectangle-23" fill="#2B7AB2" x="0" y="0" width="46" height="26" rx="3"></rect>
                            <path d="M15,7.33214286 C15,6.80356879 15.1839267,6.36607316 15.5517857,6.01964286 C15.9196447,5.67321255 16.399997,5.5 16.9928571,5.5 C17.5857173,5.5 18.0607125,5.67321255 18.4178571,6.01964286 C18.7750018,6.36607316 18.9571428,6.80356879 18.9642857,7.33214286 C18.9714286,7.85357404 18.7910733,8.28928396 18.4232143,8.63928571 C18.0553553,8.98928746 17.5714316,9.16428571 16.9714286,9.16428571 L16.95,9.16428571 C16.3642828,9.16428571 15.8928589,8.98928746 15.5357143,8.63928571 C15.1785696,8.28928396 15,7.85357404 15,7.33214286 Z M15.2035714,21.2285714 L15.2035714,10.6107143 L18.7392857,10.6107143 L18.7392857,21.2285714 L15.2035714,21.2285714 Z M20.3333333,21.4380955 C20.3476191,18.5880813 20.3333333,15.742866 20.3333333,13.9714286 L20.3333333,10.7714286 L24.2142857,10.6107143 L24.2142857,12.1535714 C24.335715,11.9249989 24.4821421,11.7250009 24.6321429,11.5535714 C24.7821436,11.382142 24.9839273,11.1964296 25.2375,10.9964286 C25.4910727,10.7964276 25.8017839,10.641072 26.1696429,10.5303571 C26.5375018,10.4196423 26.9464263,10.3642857 27.3964286,10.3642857 C28.6178632,10.3642857 29.5999963,10.7696388 30.3428571,11.5803571 C31.085718,12.3910755 31.0000004,13.4738015 31.0000004,15.038095 L31.0000004,21.4380955 L27.7999999,21.4380955 L27.9321429,15.55 C27.9321429,14.7999963 27.7875014,14.2125021 27.4982143,13.7875 C27.2089271,13.3624979 26.7571459,13.15 26.1428571,13.15 C25.6928549,13.15 25.3160729,13.2732131 25.0125,13.5196429 C24.7089271,13.7660727 24.2166674,14.6738075 24.0666667,15.038095 C23.9880948,15.2523818 24.0666667,21.4380955 24.0666667,21.4380955 L20.3333333,21.4380955 Z" id="icon" fill="#FFFFFF"></path>
                        </g>
                    </g>
                </g>
            </g>
        </g>
    </g>
</svg>