<?xml version="1.0" encoding="UTF-8" standalone="no"?>
<svg width="47px" height="26px" viewBox="0 0 47 26" version="1.1" xmlns="http://www.w3.org/2000/svg" xmlns:xlink="http://www.w3.org/1999/xlink" xmlns:sketch="http://www.bohemiancoding.com/sketch/ns">
    <!-- Generator: Sketch 3.3.2 (12043) - http://www.bohemiancoding.com/sketch -->
    <title>Rectangle 20 + icon-12x12</title>
    <desc>Created with Sketch.</desc>
    <defs></defs>
    <g id="VER02" stroke="none" stroke-width="1" fill="none" fill-rule="evenodd" sketch:type="MSPage">
        <g id="SC-PAGE-Desktop" sketch:type="MSArtboardGroup" transform="translate(-890.000000, -825.000000)">
            <g id="SHARE" sketch:type="MSLayerGroup" transform="translate(681.000000, 759.000000)">
                <g id="Group" transform="translate(103.000000, 20.000000)" sketch:type="MSShapeGroup">
                    <g id="Facebook-Button" transform="translate(106.500000, 46.000000)">
                        <g id="Rectangle-20-+-icon-12x12">
                            <rect id="Rectangle-20" fill="#3C5A96" x="0" y="0" width="46" height="26" rx="3"></rect>
                            <path d="M23,21.5 L15,21.5 L15,5.5 L31,5.5 L31,21.5 L25.6666666,21.5 L25.6666666,16.1666665 L28.3333333,16.1666665 L28.3333333,13.4999998 L25.6666666,13.4999998 L25.6666666,11.5357143 C25.6666666,10.1666667 28.3333333,10.8333335 28.3333333,10.8333335 L28.3333333,8.16666668 C25.6666666,8.16666668 24.952384,8.22321121 24.3333333,8.83333331 C23.7142826,9.44345541 23,10.4285659 23,11.5357143 L23,13.4999998 L20.3333333,13.4999998 L20.3333333,16.1666665 L23,16.1666665 C23,16.1666665 22.8505081,19.3876986 23,21.5 Z" id="icon-12x12" fill="#FFFFFF"></path>
                        </g>
                    </g>
                </g>
            </g>
        </g>
    </g>
</svg>