<?xml version="1.0" encoding="UTF-8" standalone="no"?>
<svg width="46px" height="26px" viewBox="0 0 46 26" version="1.1" xmlns="http://www.w3.org/2000/svg" xmlns:xlink="http://www.w3.org/1999/xlink" xmlns:sketch="http://www.bohemiancoding.com/sketch/ns">
    <!-- Generator: Sketch 3.3.2 (12043) - http://www.bohemiancoding.com/sketch -->
    <title>Rectangle 17 + twitter-icon</title>
    <desc>Created with Sketch.</desc>
    <defs></defs>
    <g id="VER02" stroke="none" stroke-width="1" fill="none" fill-rule="evenodd" sketch:type="MSPage">
        <g id="SC-PAGE-Desktop" sketch:type="MSArtboardGroup" transform="translate(-785.000000, -780.000000)">
            <g id="SHARE" sketch:type="MSLayerGroup" transform="translate(681.000000, 759.000000)">
                <g id="Group" transform="translate(103.000000, 20.000000)" sketch:type="MSShapeGroup">
                    <g id="Twitter-Button" transform="translate(1.000000, 1.000000)">
                        <g id="Rectangle-17-+-twitter-icon">
                            <rect id="Rectangle-17" fill="#59ADEB" x="0" y="0" width="46" height="26" rx="3"></rect>
                            <path d="M30.5362067,8.02999785 C31.3832455,7.53010537 32.0339736,6.7385731 32.3402843,5.79531933 C31.5474202,6.25822522 30.6693135,6.59435405 29.7346533,6.77546412 C28.9862067,5.99043079 27.9197989,5.5 26.7396047,5.5 C24.091061,5.5 22.1440707,7.93308723 22.742663,10.4595967 C19.3324688,10.2911978 16.3089736,8.68304542 14.2852358,6.23939741 C13.2103814,8.05446444 13.7277115,10.4298258 15.5550416,11.6320813 C14.8825173,11.6111509 14.2496533,11.4294196 13.6965465,11.126789 C13.6520319,12.9981961 15.0143135,14.7480826 16.9875659,15.1384011 C16.4100902,15.2930853 15.7775659,15.328495 15.1346533,15.2075478 C15.6566921,16.8122118 17.172129,17.9800134 18.967663,18.0125559 C17.2425659,19.3433565 15.0698474,19.9377703 12.8928571,19.6852197 C14.7086824,20.8312307 16.865527,21.5 19.1827115,21.5 C26.8007698,21.5 31.1047989,15.1658782 30.8453814,9.48485174 C31.6471775,8.91538241 32.3427601,8.20398777 32.8928571,7.3939622 C32.1570319,7.71527728 31.3662067,7.93246601 30.5362067,8.02999785 Z" id="twitter-icon" fill="#FFFFFF"></path>
                        </g>
                    </g>
                </g>
            </g>
        </g>
    </g>
</svg>